HIERARCHY
ROOT Hips
{
	OFFSET 0.000000 0.000000 0.000000
	CHANNELS 6 Xposition Yposition Zposition Zrotation Yrotation Xrotation 
	JOINT LHipJoint
	{
		OFFSET 0.000000 0.000000 0.000000
		CHANNELS 3 Zrotation Yrotation Xrotation
		JOINT LeftUpLeg
		{
			OFFSET 1.363060 -1.794630 0.839290
			CHANNELS 3 Zrotation Yrotation Xrotation
			JOINT LeftLeg
			{
				OFFSET 2.448110 -6.726130 0.000000
				CHANNELS 3 Zrotation Yrotation Xrotation
				JOINT LeftFoot
				{
					OFFSET 2.562200 -7.039590 0.000000
					CHANNELS 3 Zrotation Yrotation Xrotation
					JOINT LeftToeBase
					{
						OFFSET 0.157640 -0.433110 2.322550
						CHANNELS 3 Zrotation Yrotation Xrotation
						End Site
						{
							OFFSET 0.000000 0.000000 0.000000
						}
					}
				}
			}
		}
	}
	JOINT RHipJoint
	{
		OFFSET 0.000000 0.000000 0.000000
		CHANNELS 3 Zrotation Yrotation Xrotation
		JOINT RightUpLeg
		{
			OFFSET -1.305520 -1.794630 0.839290
			CHANNELS 3 Zrotation Yrotation Xrotation
			JOINT RightLeg
			{
				OFFSET -2.542530 -6.985550 0.000000
				CHANNELS 3 Zrotation Yrotation Xrotation
				JOINT RightFoot
				{
					OFFSET -2.568260 -7.056230 0.000000
					CHANNELS 3 Zrotation Yrotation Xrotation
					JOINT RightToeBase
					{
						OFFSET -0.164730 -0.452590 2.363150
						CHANNELS 3 Zrotation Yrotation Xrotation
						End Site
						{
							OFFSET 0.000000 0.000000 0.000000
						}
					}
				}
			}
		}
	}
}
MOTION
Frames: 32
Frame Time: 0.008333
-1.780430 16.297375 0.387807 -158.067294 73.089050 -144.020564 -10.461112 -1.635589 -3.271281 -18.218989 5.655741 -42.696274 -1.800114 1.961385 43.321156 3.116087 12.514987 -22.754677 176.526400 -0.000001 -5.338800 10.555276 -0.989807 -7.120424 -1.926611 -21.952948 -22.082312 -0.325980 -5.050882 63.216195 -1.578772 0.914691 30.260436 1.343800 0.000001 -71.237400
-1.667585 16.287518 0.317296 -158.665457 72.820052 -144.972451 -10.476855 -1.617287 -3.375137 -18.298716 5.575220 -41.671231 -1.782326 1.943168 43.684873 3.223563 12.927795 -23.704317 176.167600 0.000000 -4.812300 10.581702 -0.894204 -7.092563 -2.291215 -21.495580 -22.444840 -0.441930 -5.143438 64.498944 -1.713899 -0.603313 30.140998 0.478800 -0.000000 -68.839399
-1.555983 16.284424 0.242670 -159.032581 72.538841 -145.639023 -10.503417 -1.601816 -3.454406 -18.321901 5.498579 -40.646051 -1.763192 1.910823 43.837006 3.319163 13.320747 -24.455292 175.856000 0.000001 -4.375200 10.591521 -0.827225 -7.020446 -2.486845 -20.854247 -22.880348 -0.556437 -5.221672 65.616911 -1.818913 -1.938969 29.696639 -0.279700 -0.000000 -66.921600
-1.445577 16.287438 0.164944 -159.223312 72.241224 -146.077270 -10.539467 -1.587854 -3.511058 -18.295880 5.418566 -39.645076 -1.740498 1.870440 43.838157 3.397233 13.673056 -24.997123 175.604900 -0.000000 -4.086799 10.587611 -0.785931 -6.908479 -2.534788 -20.051420 -23.376403 -0.668930 -5.284866 66.567303 -1.892276 -3.053139 28.941629 -0.895300 -0.000000 -65.460200
-1.336301 16.295961 0.085329 -159.310661 71.919974 -146.363932 -10.582926 -1.573189 -3.547359 -18.234683 5.328999 -38.684940 -1.713691 1.826914 43.740892 3.454023 13.966650 -25.336225 175.422300 -0.000000 -3.966799 10.572764 -0.765663 -6.761881 -2.466476 -19.117238 -23.916000 -0.777069 -5.332809 67.346247 -1.934531 -3.933498 27.905088 -1.353600 0.000000 -64.373200
-1.228161 16.309501 0.005034 -159.373536 71.565277 -146.580527 -10.631250 -1.556027 -3.566825 -18.155487 5.224415 -37.775166 -1.683619 1.783855 43.587151 3.487802 14.187274 -25.493427 175.309600 0.000001 -3.996600 10.549165 -0.760456 -6.587715 -2.317073 -18.086683 -24.480622 -0.877002 -5.365938 67.949031 -1.948518 -4.594000 26.633391 -1.663100 -0.000000 -63.576300
-1.121176 16.327671 -0.074868 -159.485891 71.165595 -146.805468 -10.681764 -1.534073 -3.571986 -18.075936 5.101379 -36.916597 -1.652096 1.743279 43.404774 3.498558 14.325006 -25.498264 175.263400 0.000000 -4.130501 10.518679 -0.764401 -6.392812 -2.121734 -16.998393 -25.051871 -0.964348 -5.384833 68.371726 -1.939218 -5.070514 25.184594 -1.849000 0.000000 -62.932900
-1.015359 16.350201 -0.153622 -159.703065 70.709128 -147.096857 -10.732113 -1.506154 -3.565835 -18.009780 4.958415 -36.104640 -1.621447 1.705853 43.207507 3.487592 14.374393 -25.384275 175.275900 -0.000000 -4.309700 10.482241 -0.771606 -6.184834 -1.909072 -15.890239 -25.614872 -1.034732 -5.390066 68.610452 -1.913917 -5.416665 23.631963 -1.948700 -0.000001 -62.360300
-0.910774 16.376908 -0.230795 -160.057539 70.184968 -147.492794 -10.780805 -1.470614 -3.549076 -17.965510 4.795581 -35.328511 -1.593983 1.671123 42.995968 3.456896 14.334064 -25.182973 175.337999 -0.000000 -4.472700 10.440310 -0.777353 -5.970062 -1.700976 -14.798146 -26.157257 -1.085318 -5.381867 68.666006 -1.880903 -5.692494 22.046196 -2.000700 -0.000000 -61.698800
-0.807494 16.407575 -0.306335 -160.553222 69.583423 -148.000164 -10.827425 -1.427193 -3.522569 -17.943787 4.613889 -34.575831 -1.571623 1.638011 42.761186 3.408598 14.205640 -24.919986 175.440500 -0.000000 -4.563200 10.392238 -0.777548 -5.755031 -1.507316 -13.752362 -26.671955 -1.114508 -5.360046 68.539236 -1.849285 -5.960162 20.501310 -2.041400 0.000000 -60.908500
-0.705533 16.442026 -0.380591 -161.169506 68.897346 -148.602325 -10.872674 -1.375786 -3.485690 -17.938382 4.415177 -33.833725 -1.555576 1.605161 42.488225 3.344514 13.992920 -24.611511 175.576301 0.000000 -4.533000 10.337008 -0.769581 -5.544769 -1.329689 -12.776535 -27.153815 -1.122554 -5.324062 68.233942 -1.827297 -6.273605 19.057160 -2.098500 -0.000000 -59.957700
-0.604922 16.479973 -0.454169 -161.867636 68.121415 -149.262793 -10.918125 -1.317545 -3.438176 -17.936914 4.200867 -33.091294 -1.546196 1.571312 42.160665 3.265814 13.700354 -24.263886 175.740900 -0.000000 -4.344700 10.273095 -0.751840 -5.344059 -1.160870 -11.886293 -27.601232 -1.110883 -5.273474 67.754890 -1.821554 -6.674123 17.758819 -2.190800 0.000000 -58.902401
-0.505633 16.521157 -0.527777 -162.601708 67.253691 -149.941197 -10.965977 -1.252663 -3.377423 -17.923617 3.972090 -32.338085 -1.542804 1.535339 41.762935 3.173093 13.333670 -23.872514 175.932300 0.000000 -3.972800 10.199509 -0.724937 -5.154879 -0.989598 -11.091173 -28.011106 -1.081788 -5.207783 67.108266 -1.835720 -7.183729 16.624482 -2.326600 0.000000 -57.759700
-0.407654 16.565126 -0.602226 -163.326712 66.294887 -150.594830 -11.018537 -1.182905 -3.302705 -17.881499 3.728466 -31.568563 -1.544004 1.496707 41.285233 3.066446 12.898255 -23.426970 176.150100 -0.000000 -3.407200 10.115152 -0.689990 -4.979698 -0.802183 -10.393454 -28.382186 -1.037505 -5.127224 66.299873 -1.871077 -7.808430 15.656835 -2.507601 -0.000000 -56.627900
-0.310979 16.611459 -0.678234 -164.004051 65.248531 -151.189202 -11.078091 -1.109695 -3.212532 -17.795159 3.467620 -30.780079 -1.547651 1.455345 40.724354 2.945904 12.400378 -22.913209 176.393999 0.000000 -2.657101 10.019430 -0.649414 -4.819209 -0.586276 -9.790333 -28.712483 -0.980033 -5.032427 65.335815 -1.926022 -8.535582 14.839503 -2.728400 0.000000 -55.574000
-0.215471 16.659631 -0.756242 -164.613632 64.120739 -151.708914 -11.146275 -1.033802 -3.105054 -17.653409 3.184916 -29.971682 -1.551308 1.411661 40.083479 2.811969 11.848134 -22.317752 176.662400 -0.000000 -1.750400 9.912521 -0.606409 -4.672748 -0.333361 -9.275671 -28.998840 -0.911037 -4.924530 64.222775 -1.996538 -9.336863 14.141781 -2.977400 0.000000 -54.622900
-0.121080 16.709105 -0.836660 -165.142649 62.920278 -152.142964 -11.223975 -0.956994 -2.980575 -17.450568 2.873369 -29.147311 -1.552535 1.366670 39.373876 2.666022 11.251287 -21.633726 176.951100 0.000000 -0.740900 9.794640 -0.563517 -4.540139 -0.039276 -8.838895 -29.240774 -0.831646 -4.805211 62.967094 -2.077244 -10.173931 13.534899 -3.240300 0.000000 -53.843200
-0.027622 16.759424 -0.919308 -165.600884 61.657916 -152.504306 -11.310591 -0.879323 -2.838309 -17.187626 2.524272 -28.309523 -1.549164 1.321591 38.610968 2.510553 10.622751 -20.859587 -2.746300 -0.000000 -0.316900 9.667439 -0.523689 -4.419269 0.293697 -8.468934 -29.436114 -0.742913 -4.676457 61.577382 -2.161287 -10.999062 12.984613 -3.498200 0.000001 -53.205200
0.065028 16.810028 -1.004161 -165.996525 60.345090 -152.801607 -11.404494 -0.801753 -2.679610 -16.871578 2.128165 -27.464099 -1.539609 1.277747 37.813773 2.349235 9.977141 -20.005082 -2.438700 0.000000 -1.349800 9.532600 -0.488531 -4.308489 0.658264 -8.152004 -29.586605 -0.645576 -4.540392 60.062618 -2.241848 -11.764588 12.470827 -3.733400 0.000001 -52.727700
0.157119 16.860528 -1.090708 -166.350784 58.994659 -153.055793 -11.502473 -0.724266 -2.505906 -16.514857 1.676324 -26.615518 -1.523024 1.236342 37.001596 2.186443 9.330761 -19.085422 -2.135700 0.000000 -2.308500 9.392950 -0.459081 -4.205055 1.042881 -7.873990 -29.695132 -0.540559 -4.399206 58.434926 -2.312348 -12.425695 11.980803 -3.930100 0.000000 -52.376801
0.248867 16.910528 -1.178438 -166.684122 57.620237 -153.285390 -11.600356 -0.646969 -2.319799 -16.133408 1.162675 -25.768269 -1.499439 1.198235 36.191755 2.026912 8.700263 -18.122218 -1.846500 -0.000000 -3.157000 9.251654 -0.435166 -4.105969 1.433220 -7.619935 -29.768052 -0.428909 -4.254907 56.708284 -2.367371 -12.947078 11.515457 -4.077901 0.000000 -52.124100
0.340381 16.959707 -1.266937 -167.008257 56.232736 -153.501256 -11.694163 -0.570086 -2.124139 -15.742874 0.585857 -24.925380 -1.469185 1.163701 35.397630 1.874646 8.099863 -17.136082 -1.578100 -0.000000 -3.911300 9.111843 -0.416761 -4.007563 1.816066 -7.374834 -29.813297 -0.311639 -4.109360 54.899337 -2.402922 -13.306032 11.082653 -4.172200 -0.000000 -51.902000
0.431913 17.007765 -1.355657 -167.339906 54.846596 -153.715423 -11.779475 -0.493984 -1.923148 -15.359471 -0.050758 -24.091112 -1.433854 1.132793 34.627981 1.733138 7.541636 -16.150283 -1.335300 0.000000 -4.578500 8.976490 -0.401917 -3.906379 2.177848 -7.122496 -29.843131 -0.190498 -3.963856 53.026000 -2.417377 -13.496917 10.702341 -4.217200 -0.000001 -51.703000
0.523532 17.054484 -1.444366 -167.682893 53.473168 -153.928553 -11.853397 -0.419265 -1.720794 -14.994989 -0.737705 -23.268401 -1.394930 1.105001 33.886617 1.604354 7.032768 -15.182072 -1.120100 0.000000 -5.207201 8.847712 -0.389411 -3.798558 2.509594 -6.847659 -29.870904 -0.067195 -3.819406 51.107261 -2.411074 -13.529325 10.392598 -4.221600 0.000000 -51.492600
0.615228 17.099618 -1.532883 -168.037108 52.123447 -154.137849 -11.914327 -0.346768 -1.521198 -14.657201 -1.460744 -22.460842 -1.354155 1.079636 33.172728 1.488914 6.575423 -14.243936 -0.931799 0.000000 -5.844700 8.726590 -0.377752 -3.680495 2.805579 -6.535423 -29.910686 0.056281 -3.676492 49.161126 -2.386366 -13.426341 10.169879 -4.197800 0.000000 -51.268900
0.706921 17.142951 -1.621281 -168.396250 50.806080 -154.335456 -11.962397 -0.277514 -1.328283 -14.347409 -2.201456 -21.671536 -1.312737 1.055943 32.482976 1.385981 6.166576 -13.338905 -0.767701 -0.000000 -6.567900 8.613148 -0.366373 -3.549165 3.065692 -6.173226 -29.974882 0.178264 -3.535410 47.203780 -2.347123 -13.220445 10.040573 -4.158500 0.000000 -51.021300
0.798534 17.184316 -1.709684 -168.753909 49.530512 -154.513293 -11.998994 -0.212114 -1.145332 -14.064203 -2.940033 -20.904589 -1.272094 1.033326 31.812400 1.293892 5.798592 -12.468259 -0.624400 -0.000001 -7.402000 8.506300 -0.354426 -3.401944 3.291724 -5.750542 -30.075632 0.297069 -3.395795 45.247914 -2.298118 -12.948309 10.004549 -4.115700 0.000001 -50.786800
0.889891 17.223471 -1.798333 -169.100417 48.302776 -154.662050 -12.026763 -0.151069 -0.974935 -13.801596 -3.656606 -20.163875 -1.233052 1.011370 31.156153 1.210064 5.459190 -11.626901 -0.498200 -0.000001 -8.370500 8.404177 -0.342064 -3.237190 3.488902 -5.261256 -30.220368 0.411877 -3.257031 43.301105 -2.244215 -12.645762 10.049607 -4.078400 0.000000 -50.592500
0.980816 17.260222 -1.887502 -169.425685 47.126287 -154.774127 -12.048905 -0.094620 -0.819236 -13.550431 -4.333323 -19.452634 -1.195576 0.990176 30.511683 1.131416 5.133950 -10.800689 -0.385000 0.000000 -9.535100 8.304634 -0.330062 -3.054728 3.665256 -4.704948 -30.412105 0.522950 -3.118386 41.365576 -2.189640 -12.343099 10.153841 -4.052100 0.000001 -50.454701
1.071207 17.294375 -1.977361 -169.725143 46.004098 -154.847253 -12.068378 -0.042158 -0.679111 -13.303890 -4.956413 -18.774227 -1.160369 0.970052 29.879302 1.055208 4.806535 -9.985649 -0.282900 -0.000000 -10.830700 8.205551 -0.318923 -2.854920 3.826786 -4.086429 -30.649933 0.630982 -2.978456 39.437811 -2.137440 -12.061824 10.293672 -4.039400 0.000000 -50.414900
1.160979 17.325733 -2.068168 -169.994513 44.935557 -154.880939 -12.087736 0.007112 -0.554975 -13.055279 -5.517131 -18.130287 -1.127398 0.951699 29.262415 0.978902 4.461649 -9.172646 -0.190500 0.000000 -12.241801 8.105285 -0.309529 -2.639630 3.980074 -3.416930 -30.928401 0.737987 -2.835792 37.508598 -2.088830 -11.811180 10.441866 -4.039300 -0.000000 -50.487399
1.250157 17.354103 -2.160002 -170.234006 43.918051 -154.879261 -12.108228 0.054265 -0.446685 -12.801770 -6.012180 -17.521303 -1.097177 0.935896 28.668298 0.900726 4.085294 -8.363180 -0.108400 0.000000 -13.671301 8.003188 -0.302423 -2.411685 4.129460 -2.713266 -31.238549 0.846614 -2.688733 35.564826 -2.043072 -11.587599 10.574952 -4.046700 0.000000 -50.674100
